<svg width="74" height="75" viewBox="0 0 74 75" fill="none" xmlns="http://www.w3.org/2000/svg">
<path d="M34.4339 21.0236C25.2801 21.0236 16.666 17.5054 10.1663 11.1226L9.54846 10.5118L10.1663 9.90106C16.6575 3.51826 25.272 0 34.4339 0C43.5878 0 52.2019 3.51826 58.7016 9.90106L59.3194 10.5118L58.7016 11.1226C52.2104 17.5054 43.5959 21.0236 34.4339 21.0236ZM12.0358 10.5118C18.1268 16.1893 26.0451 19.3033 34.4339 19.3033C42.8307 19.3033 50.7572 16.1893 56.8321 10.5118C50.7411 4.8343 42.8228 1.72029 34.4339 1.72029C26.0372 1.72029 18.1107 4.8343 12.0358 10.5118Z" fill="#43A4AA"/>
<path d="M34.4189 68.0313H34.2624C25.1607 67.9883 16.6067 64.4714 10.1657 58.1344L9.54846 57.5239L10.1657 56.9134C12.6954 54.4199 15.5902 52.339 18.7632 50.7311C23.5619 48.2977 28.9689 47.0079 34.4109 47.0079C35.767 47.0079 37.1753 47.0939 38.5923 47.2573L38.3924 48.9684C37.0449 48.8136 35.7063 48.7363 34.4196 48.7363C29.256 48.7363 24.1182 49.9572 19.5718 52.2703C16.8161 53.6633 14.2864 55.4346 12.0437 57.5327C18.0767 63.1646 25.9353 66.2773 34.2806 66.3204H34.437C37.8273 66.3204 41.1655 65.8131 44.3472 64.8071L44.8775 66.4409C41.5045 67.4985 37.9926 68.0316 34.4197 68.0316L34.4189 68.0313Z" fill="#43A4AA"/>
<path d="M34.3922 68.0299H34.2356C25.1309 67.9868 16.5741 64.4674 10.1309 58.1258C6.95681 55.0021 4.46111 51.3538 2.72182 47.2922C0.921798 43.0845 0 38.6185 0 34.0149C0 29.4113 0.913084 24.9454 2.72182 20.7377C4.46111 16.6763 6.95682 13.0277 10.1395 9.90411C13.2962 6.79779 16.9659 4.36256 21.053 2.65882C25.2792 0.894824 29.7664 0 34.3927 0C39.0191 0 43.5061 0.894902 47.7325 2.65882C51.8196 4.36256 55.4807 6.80629 58.6373 9.91276C64.3592 15.5404 67.916 23.0179 68.629 30.9609L66.8985 31.1157C66.2202 23.578 62.8462 16.479 57.4111 11.136C51.2543 5.06107 43.0801 1.72236 34.3924 1.72236C25.7138 1.72236 17.5307 5.06107 11.3737 11.1274C5.16474 17.2281 1.74723 25.3597 1.74723 34.0164C1.74723 42.6731 5.16474 50.7957 11.365 56.9054C17.4782 62.9288 25.6003 66.2675 34.2438 66.3104H34.4003C37.7917 66.3104 41.131 65.8028 44.3138 64.796L44.8442 66.431C41.4789 67.498 37.9657 68.0315 34.3917 68.0315L34.3922 68.0299Z" fill="#43A4AA"/>
<path d="M45.5757 59.4095C43.6739 55.7568 42.6707 52.3283 42.6096 49.1926V48.8652C42.6096 42.6713 46.3347 37.0631 52.0922 34.5821C54.0812 33.7379 56.1835 33.3071 58.3645 33.3071V35.0301C56.4277 35.0301 54.5523 35.4092 52.7901 36.1673C47.6692 38.3726 44.3543 43.3518 44.3543 48.8652V49.1667C44.4153 52.0268 45.3488 55.2056 47.1285 58.617L45.5757 59.4095Z" fill="#43A4AA"/>
<path d="M34.3372 68.1495H34.1633C30.8424 68.0978 27.5998 66.4862 24.7745 63.496C22.1144 60.6693 19.8541 56.6449 18.2459 51.8535C16.4637 46.5192 15.5161 40.3835 15.5161 34.0833C15.5161 27.7838 16.4637 21.6394 18.2459 16.3131C19.8716 11.4786 22.1492 7.42829 24.8442 4.59312C27.6957 1.58556 30.9817 0 34.3374 0C37.6932 0 40.9705 1.58556 43.8219 4.59312C46.5168 7.42829 48.7945 11.4786 50.4202 16.3044C51.7764 20.346 52.6457 24.7928 52.9935 29.5324L51.2635 29.6617C50.9245 25.0686 50.0899 20.751 48.7771 16.8473C47.2384 12.2542 45.0911 8.42787 42.57 5.77376C40.0576 3.12816 37.2148 1.72349 34.3461 1.72349C31.4861 1.72349 28.6433 3.12817 26.1223 5.77376C23.6012 8.42803 21.4539 12.2542 19.9064 16.856C18.1764 22.0007 17.2636 27.9556 17.2636 34.0747C17.2636 40.1845 18.1764 46.1393 19.9064 51.2934C21.4364 55.8522 23.5577 59.6612 26.0526 62.3068C28.539 64.9524 31.3555 66.3742 34.1897 66.4174H34.3375C37.1194 66.4174 39.9013 65.0903 42.3616 62.5654L43.6134 63.7632C40.8142 66.6416 37.6063 68.1496 34.3375 68.1496L34.3372 68.1495Z" fill="#43A4AA"/>
<path d="M33.5387 0.826904H35.329V67.2049H33.5387V0.826904Z" fill="#43A4AA"/>
<path d="M0.835693 33.189H44.6389V34.9606H0.835693V33.189Z" fill="#43A4AA"/>
<path d="M58.3006 75L57.7272 74.5006C57.5274 74.3284 52.7576 70.1438 48.6046 64.2372C47.3622 62.4721 46.3717 60.8448 45.5637 59.2778C43.6696 55.6357 42.6792 52.2003 42.6096 49.0747V48.7475C42.6096 42.5396 46.3196 36.9429 52.0536 34.4719C54.0432 33.6195 56.1458 33.189 58.3004 33.189C61.9581 33.189 65.5203 34.4633 68.3353 36.7794C71.9408 39.7672 73.9999 44.1325 73.9999 48.7561C73.9999 51.6578 73.1919 54.8263 71.602 58.1756C70.3422 60.8189 68.5958 63.5828 66.4064 66.3897C62.6879 71.1511 59.0301 74.3628 58.8738 74.5005L58.3006 75ZM44.3474 49.0487C44.4082 51.9072 45.3379 55.0844 47.1103 58.494C47.8836 59.9922 48.8393 61.5506 50.0295 63.2554C53.2355 67.8102 56.9105 71.392 58.3006 72.6835C59.4735 71.5901 62.2799 68.8692 65.0513 65.3133C68.3442 61.0857 72.2626 54.7831 72.2626 48.7567C72.2626 44.6496 70.4294 40.7664 67.2234 38.106C64.7299 36.0482 61.5587 34.9116 58.3006 34.9116C56.3805 34.9116 54.5125 35.2991 52.7489 36.0568C47.6489 38.2523 44.3474 43.2291 44.3474 48.7481V49.0487Z" fill="#43A4AA"/>
<path d="M58.3048 53.8583C55.5118 53.8583 53.2322 51.6025 53.2322 48.8387C53.2322 46.0748 55.5118 43.819 58.3048 43.819C61.0978 43.819 63.3773 46.0748 63.3773 48.8387C63.3773 51.6025 61.0978 53.8583 58.3048 53.8583ZM58.3048 45.5411C56.4689 45.5411 54.9724 47.022 54.9724 48.8387C54.9724 50.6554 56.4689 52.1363 58.3048 52.1363C60.1406 52.1363 61.6371 50.6553 61.6371 48.8387C61.6371 47.0219 60.1406 45.5411 58.3048 45.5411Z" fill="#43A4AA"/>
</svg>
