<svg width="53" height="75" viewBox="0 0 53 75" fill="none" xmlns="http://www.w3.org/2000/svg">
<path d="M45.9219 75.0001H6.57805C2.95079 75.0001 0 72.065 0 68.4573V34.537C0 30.9295 2.95059 27.9941 6.57805 27.9941H45.9219C49.5492 27.9941 52.5 30.9293 52.5 34.537V68.4573C52.4992 72.0634 49.5486 74.9993 45.9219 74.9993V75.0001ZM6.57805 29.8975C4.00625 29.8975 1.915 31.9786 1.915 34.537V68.4573C1.915 71.0156 4.00545 73.0967 6.57805 73.0967H45.9219C48.4937 73.0967 50.585 71.0156 50.585 68.4573V34.537C50.585 31.9786 48.4945 29.8975 45.9219 29.8975H6.57805Z" fill="#43A4AA"/>
<path d="M30.2025 64.0717H22.301C20.7433 64.0717 19.4767 62.8122 19.4767 61.2607C19.4767 61.1764 19.4877 61.0937 19.5096 61.0124L21.7215 52.8488C19.7874 51.4261 18.6533 49.2061 18.6533 46.784C18.6533 42.6144 22.0613 39.2216 26.2512 39.2216C30.4411 39.2216 33.8467 42.6144 33.8467 46.784C33.8467 49.2061 32.7117 51.4253 30.7784 52.848L32.9925 61.0132C33.0153 61.0937 33.0254 61.1764 33.0254 61.2615C33.0254 62.8123 31.758 64.0719 30.2025 64.0719L30.2025 64.0717ZM21.396 61.3653C21.4486 61.8166 21.8337 62.168 22.3012 62.168H30.2027C30.6686 62.168 31.0552 61.819 31.1078 61.3653L28.7531 52.6879C28.6417 52.2772 28.8182 51.843 29.1837 51.6259C30.9053 50.589 31.9327 48.779 31.9327 46.7871C31.9327 43.6678 29.3837 41.1277 26.2502 41.1277C23.1152 41.1277 20.5654 43.6678 20.5654 46.7871C20.5654 48.7798 21.5929 50.5897 23.3144 51.6259C23.6799 51.8454 23.854 52.2795 23.745 52.6879L21.396 61.3653Z" fill="#43A4AA"/>
<path d="M43.1246 25.2994C42.5963 25.2994 42.1684 24.8748 42.1684 24.3507V16.7481C42.1684 8.5591 35.4523 1.89592 27.2008 1.89592H25.1536C16.8997 1.89592 10.186 8.5593 10.186 16.7481V24.3507C10.186 24.8748 9.75806 25.2994 9.22981 25.2994C8.70155 25.2994 8.27362 24.8748 8.27362 24.3507V16.7481C8.27362 7.5132 15.8447 0 25.1512 0H27.1983C36.5056 0 44.0759 7.5132 44.0759 16.7481V24.3507C44.0798 24.8748 43.6511 25.2994 43.1244 25.2994H43.1246Z" fill="#43A4AA"/>
</svg>
