<svg width="90" height="40" viewBox="0 0 90 40" fill="none" xmlns="http://www.w3.org/2000/svg">
<path d="M20.3909 0C9.15795 0 0 8.95539 0 20C0 31.0446 9.15772 40 20.3909 40C26.0984 40 31.1504 37.1202 35.4298 33.3202C39.2514 29.9268 42.3842 25.8104 45 22.07C47.6158 25.8106 50.7486 29.9268 54.5702 33.3202C58.8496 37.1199 63.9016 40 69.6091 40C77.9046 40 85.0621 35.1356 88.2422 28.1246L85.9762 27.0704C83.1998 33.1913 76.9274 37.4995 69.6094 37.4995C64.7458 37.4995 60.2266 35.0111 56.2115 31.4449C52.4214 28.0794 49.1602 23.8192 46.5236 20.0003C49.1602 16.1805 52.4205 11.8828 56.2115 8.5164C60.2266 4.95018 64.7458 2.50113 69.6094 2.50113C79.5189 2.50113 87.4994 10.3353 87.4994 20.0003H90C90 8.95589 80.8423 0.000292908 69.6091 0.000292908C63.9016 0.000292908 58.8496 2.88014 54.5702 6.68005C50.7486 10.0735 47.6158 14.1899 45 17.9303C42.3842 14.1897 39.2514 10.0735 35.4298 6.68005C31.1504 2.88036 26.0984 0.000292908 20.3909 0.000292908V0ZM20.3909 2.50061C25.2544 2.50061 29.7736 4.94989 33.7887 8.51588C37.5798 11.8823 40.84 16.18 43.4766 19.9998C40.84 23.8187 37.5789 28.0788 33.7887 31.4444C29.7736 35.0106 25.2544 37.4989 20.3909 37.4989C10.4814 37.4989 2.50087 29.6647 2.50087 19.9998C2.50087 10.3348 10.4816 2.50061 20.3909 2.50061Z" fill="#43A4AA"/>
</svg>
