<svg width="80" height="75" viewBox="0 0 80 75" fill="none" xmlns="http://www.w3.org/2000/svg">
<path d="M40.2966 50.0036C40.4124 50.1194 40.6432 50.2345 40.874 50.2345C41.1048 50.2345 41.3356 50.1187 41.4514 50.0036C42.2596 49.1951 60.9593 30.9487 60.9593 20.0945C60.9593 9.00801 51.9557 0 40.8736 0C29.792 0 20.788 9.00763 20.788 20.0945C20.788 30.9495 39.4876 49.1948 40.2959 50.0036H40.2966ZM40.7582 1.61574C50.9159 1.61574 59.2272 9.93072 59.2272 20.0928C59.2272 29.2162 43.9904 45.1528 40.7582 48.2698C37.6413 45.0365 22.2893 29.2149 22.2893 20.0928C22.405 9.93072 30.6006 1.61574 40.7582 1.61574Z" fill="#43A4AA"/>
<path d="M51.6891 20.1221C51.6891 14.1143 46.845 9.14648 40.7332 9.14648C34.7363 9.14648 29.7774 13.9993 29.7774 20.1221C29.7774 26.2457 34.6214 31.0977 40.7332 31.0977C46.8458 31.0977 51.6891 26.1299 51.6891 20.1221ZM31.5075 20.1221C31.5075 15.0384 35.6589 10.7635 40.8492 10.7635C45.9238 10.7635 50.191 14.9224 50.191 20.1221C50.191 25.2058 46.0396 29.4807 40.8492 29.4807C35.6598 29.4807 31.5075 25.2058 31.5075 20.1221Z" fill="#43A4AA"/>
<path d="M70.8471 48.0333C70.9628 48.1493 71.1935 48.2645 71.4242 48.2645C71.6548 48.2645 71.8855 48.1486 72.0012 48.0333C72.6932 47.2236 79.4999 40.5166 79.4999 36.2377C79.4999 31.7277 75.8085 28.1426 71.4242 28.1426C66.925 28.1426 63.3485 31.8429 63.3485 36.2377C63.2335 40.5166 70.0401 47.2236 70.8472 48.0333H70.8471ZM71.4242 29.7613C75.0006 29.7613 77.8844 32.652 77.8844 36.2371C77.8844 39.0127 73.6158 43.985 71.4242 46.2981C69.2325 43.985 64.9639 39.0125 64.9639 36.2371C64.8482 32.6528 67.8477 29.7613 71.4242 29.7613Z" fill="#43A4AA"/>
<path d="M76.1288 36.3039C76.1288 33.7501 74.0429 31.6604 71.4937 31.6604C68.9444 31.6604 66.8585 33.7501 66.8585 36.3039C66.8585 38.8578 68.9444 40.9475 71.4937 40.9475C74.0429 40.9467 76.1288 38.857 76.1288 36.3039ZM68.3656 36.3039C68.3656 34.5628 69.7557 33.2858 71.3783 33.2858C73.0008 33.2858 74.3909 34.6785 74.3909 36.3039C74.3909 37.9294 73.0008 39.322 71.3783 39.322C69.7557 39.322 68.3656 37.9287 68.3656 36.3039Z" fill="#43A4AA"/>
<path d="M14.9423 56.476C15.0583 56.5921 15.2895 56.7074 15.5206 56.7074C15.7518 56.7074 15.983 56.5913 16.099 56.476C16.4461 56.1284 25.0017 47.7943 25.0017 42.7006C25.0017 37.4917 20.7235 33.2084 15.5206 33.2084C10.3178 33.2084 6.03964 37.4917 6.03964 42.7006C6.03891 47.7935 14.4799 56.1285 14.9423 56.476H14.9423ZM15.4047 34.8282C19.6829 34.8282 23.2674 38.3009 23.2674 42.7003C23.2674 46.0576 18.0646 52.0772 15.4047 54.7393C12.7457 52.0772 7.54194 46.0576 7.54194 42.7003C7.6579 38.417 11.1265 34.8282 15.4047 34.8282Z" fill="#43A4AA"/>
<path d="M20.6474 42.7064C20.6474 39.7241 18.2431 37.4297 15.3802 37.4297C12.518 37.4297 10.113 39.8383 10.113 42.7064C10.113 45.5738 12.5173 47.9832 15.3802 47.9832C18.2431 47.9832 20.6474 45.6888 20.6474 42.7064ZM11.6024 42.7064C11.6024 40.6415 13.3198 39.0361 15.2661 39.0361C17.2125 39.0361 18.9299 40.7566 18.9299 42.7064C18.9299 44.6563 17.2124 46.3768 15.2661 46.3768C13.3198 46.3768 11.6024 44.7706 11.6024 42.7064Z" fill="#43A4AA"/>
<path d="M74.2604 54.3259L60.5368 47.5112C60.4212 47.5112 60.4212 47.3954 60.1906 47.3954H60.0749C59.7286 47.2795 59.4981 47.2795 59.1525 47.2795H58.9219C58.6913 47.2795 58.3451 47.3954 58.1145 47.3954L40.585 53.8632L32.9732 49.9365C32.1657 49.4746 31.1277 49.4746 30.3211 49.9365L21.2101 54.4409C20.8638 54.6718 20.6332 55.1337 20.8638 55.4805C21.0944 55.8273 21.5556 56.0582 21.9019 55.8273L31.0128 51.3228C31.3591 51.0919 31.8203 51.0919 32.2815 51.3228L40.2388 55.4805C40.4694 55.5963 40.7 55.5963 40.9306 55.4805L58.8057 48.8968C58.9213 48.8968 59.0363 48.8968 59.2669 48.781C59.3825 48.781 59.6131 48.781 59.728 48.8968H59.8437L73.6831 55.7115C74.0293 55.9424 74.2599 56.1734 74.3748 56.6353C74.4905 56.9821 74.3748 57.4439 74.1442 57.79L61.9205 72.6897C61.5742 73.1516 60.7675 73.3826 60.1907 73.0365L47.2744 65.5291C47.0438 65.4133 46.8133 65.4133 46.5827 65.5291L29.7449 72.3438C29.2837 72.5747 28.8225 72.4596 28.3613 72.1128L17.5204 63.2197C17.2898 62.9888 16.9435 62.9888 16.7129 63.1039L3.4504 68.0702C2.75862 68.3012 2.06684 67.9544 1.72057 67.3774C1.48997 66.6846 1.72057 65.9918 2.29742 65.645L11.9845 60.7937C12.3308 60.5628 12.5613 60.1009 12.3308 59.7541C12.1002 59.4073 11.639 59.1764 11.2927 59.4073L1.60564 64.2586C0.222077 64.9514 -0.354787 66.6839 0.222078 68.0703C0.798924 69.5718 2.52883 70.1495 4.02805 69.6876L16.9443 64.8363L27.3232 73.3833C28.1307 74.0762 29.2837 74.192 30.3217 73.8452L46.8132 67.2616L59.3838 74.6532C59.845 74.8841 60.3062 75 60.883 75C61.8054 75 62.6129 74.6532 63.1898 73.8453L75.1829 58.8305C75.7597 58.1376 75.9903 57.2131 75.7597 56.2894C75.644 55.3649 75.0679 54.6721 74.2605 54.326L74.2604 54.3259Z" fill="#43A4AA"/>
<path d="M51.5602 54.2182L42.0002 57.6983C41.8846 57.6983 41.7699 57.8146 41.6543 57.9302L34.7438 65.587C34.5135 65.8189 34.5135 66.2828 34.6283 66.6311C34.7438 66.8631 35.0889 66.9794 35.3192 66.9794H35.6651L46.0308 62.8036C46.1463 62.8036 46.2611 62.6872 46.3766 62.5716L52.4814 55.6114C52.7117 55.3795 52.7117 54.9155 52.5969 54.5672C52.4821 54.2182 51.906 54.1018 51.5602 54.2182V54.2182ZM45.2258 61.2939L38.3153 64.0782L42.6917 59.2056L49.0269 56.8852L45.2258 61.2939Z" fill="#43A4AA"/>
<path d="M49.5822 63.3202C49.5822 63.5513 49.8132 63.7824 49.929 63.8984L59.8608 69.6778C59.9766 69.7938 60.0917 69.7938 60.3226 69.7938C60.5536 69.7938 60.7845 69.6778 60.9003 69.4467L70.0242 58.0039C70.3702 58.0031 70.3702 57.6561 70.3702 57.425C70.3702 57.1938 70.1393 56.9627 69.9084 56.8468L59.9758 51.9926C59.6291 51.8767 59.2831 51.8767 59.0521 52.2237L49.8132 62.7421C49.6974 62.8573 49.5823 63.0891 49.5823 63.3202L49.5822 63.3202ZM59.8609 53.7263L68.2913 57.8871L60.2069 67.9432L51.6607 62.9731L59.8609 53.7263Z" fill="#43A4AA"/>
<path d="M37.7426 56.9958L31.9613 53.9803C31.7301 53.864 31.499 53.864 31.2678 53.9803L19.7054 59.7795C19.4742 59.8958 19.243 60.1277 19.243 60.3596C19.243 60.5915 19.3589 60.9397 19.5901 61.0553L28.0304 68.0139C28.1464 68.1302 28.3776 68.2458 28.4928 68.2458C28.724 68.2458 28.9552 68.1295 29.0711 68.0139L37.9738 58.2718C38.0898 58.0399 38.205 57.808 38.205 57.5761C38.0898 57.3435 37.9738 57.1116 37.7426 56.996V56.9958ZM28.3776 66.3898L21.5556 60.7071L31.6149 55.6038L36.0082 57.9236L28.3776 66.3898Z" fill="#43A4AA"/>
</svg>
