<svg width="67" height="75" viewBox="0 0 67 75" fill="none" xmlns="http://www.w3.org/2000/svg">
<path d="M29.6645 14.7872C29.635 15.214 29.2509 15.5377 28.8226 15.5083C28.3942 15.4788 28.0692 15.0962 28.0988 14.6695C28.2317 12.8889 28.6453 11.1674 29.3544 9.57801C30.0338 8.01821 30.994 6.57619 32.22 5.28121C35.3811 1.97031 39.7526 0.263289 44.1987 0.0279361C46.7393 -0.1045 49.2949 0.23394 51.6723 1.04329C54.0653 1.85262 56.2515 3.11805 58.0536 4.82507C60.683 7.32659 62.4407 10.7406 62.6771 15.0073C62.6919 15.434 62.3669 15.8019 61.9385 15.8314C61.5101 15.8461 61.1409 15.5223 61.1113 15.0956C60.9045 11.255 59.324 8.19413 56.9753 5.9581C55.3505 4.41301 53.3563 3.26518 51.1702 2.52953C48.984 1.79376 46.6206 1.47004 44.2719 1.60247C40.2098 1.8232 36.2223 3.36829 33.3419 6.37015C32.2488 7.51792 31.3921 8.81283 30.7718 10.2108C30.1514 11.6381 29.7674 13.1832 29.6492 14.8019L29.6645 14.7872Z" fill="#43A4AA"/>
<path d="M34.0006 15.9266V19.826C34.0006 23.359 35.2715 26.3348 37.1926 28.4891C39.291 30.8347 42.1876 32.198 45.0833 32.242H45.2606C48.0536 32.242 50.8614 31.0546 52.9886 28.9436C55.1314 26.8179 56.5797 23.7834 56.6387 20.0899V19.8261V15.9267C56.6387 11.3529 53.7276 8.43641 50.0035 7.14632C48.5258 6.63324 46.9149 6.38404 45.3042 6.38404C43.6934 6.38404 42.0826 6.63324 40.6049 7.14632C36.8809 8.43637 33.9697 11.3536 33.9697 15.9267L34.0006 15.9266ZM32.4194 19.826V15.9266C32.4194 10.576 35.7887 7.16091 40.103 5.68033C41.7581 5.10861 43.5314 4.83008 45.3196 4.83008C47.0929 4.83008 48.8811 5.10861 50.5361 5.68033C54.8512 7.1756 58.2198 10.5912 58.2198 15.9266V19.826V20.1192C58.1459 24.2532 56.5203 27.6681 54.1115 30.0576C51.688 32.4617 48.4812 33.8104 45.2751 33.8104H45.083C41.7432 33.7518 38.433 32.1979 36.0397 29.5299C33.8673 27.1111 32.4339 23.7834 32.4339 19.8259L32.4194 19.826Z" fill="#43A4AA"/>
<path d="M36.7295 63.1786C36.301 63.1786 35.9464 62.8266 35.9464 62.4012C35.9464 61.9759 36.301 61.6239 36.7295 61.6239H65.4054L64.3564 46.1802C64.0461 41.6334 61.1502 40.9295 57.2792 39.9908C55.5505 39.5654 53.6297 39.0961 51.6351 38.2601L49.7882 37.4827C49.6553 37.5707 49.5223 37.6587 49.4041 37.7614C49.1677 37.9521 48.9165 38.1574 48.6653 38.4067L45.9319 41.1348C45.6217 41.4428 45.1341 41.4428 44.8238 41.1348L42.0166 38.4067C41.7802 38.1721 41.529 37.9667 41.2778 37.7761C41.1448 37.6734 41.0119 37.5854 40.8789 37.4974L39.0172 38.2601C37.0522 39.0521 35.1758 39.5214 33.4618 39.9321C29.5317 40.8855 26.5914 41.5895 26.2812 46.1802L25.8971 51.8417C25.8675 52.267 25.4981 52.6043 25.0549 52.575C24.6264 52.5457 24.2866 52.179 24.3161 51.739L24.7003 46.0775C25.0844 40.3574 28.5122 39.5214 33.077 38.4221C34.7318 38.0261 36.5491 37.5861 38.396 36.8234L40.5975 35.9287C40.8339 35.8114 41.1146 35.8261 41.351 35.9727C41.6317 36.1487 41.9125 36.3248 42.1932 36.5448C42.4739 36.7648 42.7842 37.0141 43.0797 37.3074L45.3403 39.4929L47.5271 37.3074C47.8226 37.0141 48.1181 36.7501 48.4136 36.5301C48.7091 36.2954 48.9898 36.1047 49.2557 35.9434C49.4626 35.8114 49.7285 35.7821 49.9797 35.8847L52.2255 36.8234C54.102 37.6154 55.9636 38.0701 57.6331 38.4808C62.1396 39.5808 65.5223 40.4022 65.9065 46.0922L66.9998 62.3133V62.4159C66.9998 62.8413 66.6452 63.1933 66.2167 63.1933H36.6979L36.7295 63.1786Z" fill="#43A4AA"/>
<path d="M28.907 14.2371H31.2261C31.6572 14.2371 32.0139 14.5897 32.0139 15.0156V22.4326C32.0139 22.8585 31.6572 23.2111 31.2261 23.2111H28.2382C27.5692 23.2111 26.9597 22.9467 26.5138 22.506C26.0678 22.0654 25.8002 21.4632 25.8002 20.8022V17.2917C25.8002 16.4398 26.1421 15.676 26.707 15.1178C27.2719 14.5596 28.0449 14.2218 28.9072 14.2218L28.907 14.2371ZM30.4233 15.8088H28.907C28.4908 15.8088 28.1043 15.985 27.8367 16.2494C27.5543 16.5285 27.3908 16.8957 27.3908 17.307V20.8174C27.3908 21.0524 27.48 21.2581 27.6435 21.4049C27.7921 21.5518 28.0151 21.6546 28.2381 21.6546H30.4234V15.7941L30.4233 15.8088Z" fill="#43A4AA"/>
<path d="M47.2485 28.9803C46.8214 28.9803 46.4678 28.6275 46.4678 28.2012C46.4678 27.775 46.8214 27.4222 47.2485 27.4222H56.675C58.6193 27.4222 59.6356 27.1282 60.1217 26.4226C60.6372 25.6729 60.7109 24.3353 60.7109 22.3802C60.7109 21.9539 61.0644 21.6011 61.4916 21.6011C61.9187 21.6011 62.2723 21.9539 62.2723 22.3802C62.2723 24.6292 62.1692 26.2167 61.3885 27.3191C60.5783 28.4804 59.1789 28.9801 56.6602 28.9801H47.2337L47.2485 28.9803Z" fill="#43A4AA"/>
<path d="M44.8094 26.4312H46.0997C46.6039 26.4312 47.0785 26.634 47.4048 26.9673C47.7459 27.3006 47.9536 27.7498 47.9536 28.2424C47.9536 28.7351 47.7459 29.1988 47.4048 29.5176C47.0637 29.8508 46.6039 30.0537 46.0997 30.0537H44.8094C44.3052 30.0537 43.8306 29.8508 43.5043 29.5176C43.1632 29.1843 42.9556 28.7351 42.9556 28.2424C42.9556 27.7498 43.1632 27.2861 43.5043 26.9673C43.8454 26.634 44.3052 26.4312 44.8094 26.4312ZM46.0997 27.9816H44.8094C44.7353 27.9816 44.6611 28.0106 44.6166 28.054C44.5721 28.0975 44.5425 28.1699 44.5425 28.2424C44.5425 28.3148 44.5721 28.3873 44.6166 28.4308C44.6611 28.4742 44.7353 28.5032 44.8094 28.5032H46.0997C46.1738 28.5032 46.248 28.4742 46.2925 28.4308C46.337 28.3873 46.3666 28.3148 46.3666 28.2424C46.3666 28.1699 46.337 28.0975 46.2925 28.054C46.248 28.0106 46.1738 27.9816 46.0997 27.9816Z" fill="#43A4AA"/>
<path d="M37.0306 43.8684C36.114 43.7803 35.1827 43.8537 34.2956 44.0741C32.9947 44.412 31.753 45.0879 30.7328 46.1016C29.7423 47.0859 29.0622 48.276 28.7223 49.5247C28.3674 50.8177 28.3527 52.1988 28.6779 53.5062C28.7518 53.7854 28.6631 54.0645 28.4709 54.2555L15.344 67.3013C14.6344 68.0066 14.2796 68.9322 14.2796 69.8577C14.2796 70.7832 14.6344 71.7089 15.344 72.414C16.0536 73.1192 16.985 73.4718 17.9162 73.4718C18.8475 73.4718 19.7789 73.1192 20.4884 72.414L33.6154 59.3682C33.8224 59.1625 34.1328 59.089 34.3989 59.1772C35.6999 59.5004 37.0748 59.4857 38.3608 59.1184C39.6174 58.7805 40.8148 58.1046 41.8053 57.1203C42.8253 56.1066 43.5054 54.8724 43.8453 53.5795C44.0819 52.6979 44.141 51.7723 44.0523 50.8614L38.6269 56.2533C38.3756 56.5031 38.0356 56.6353 37.6955 56.6353C37.3555 56.6353 37.0303 56.5031 36.779 56.2533L31.6048 51.1111C31.59 51.0964 31.5604 51.067 31.5456 51.0523C31.3239 50.8025 31.2204 50.5087 31.2204 50.2002C31.2204 49.8623 31.3534 49.539 31.6048 49.2893L37.0302 43.8974L37.0306 43.8684ZM33.8965 42.5608C35.5078 42.1495 37.2079 42.1642 38.8192 42.6049C38.9523 42.6343 39.0853 42.7078 39.1888 42.8106C39.4993 43.1191 39.4993 43.6187 39.1888 43.9125L32.8912 50.1712L37.681 54.9314L43.9786 48.6727C44.0673 48.5845 44.1856 48.5111 44.3186 48.467C44.7326 48.3495 45.1761 48.5845 45.2943 49.0106C45.7526 50.612 45.7822 52.3163 45.3535 53.9324C44.9395 55.4897 44.1265 56.9735 42.8995 58.193C41.7168 59.3684 40.2827 60.1764 38.7601 60.5878C37.3409 60.9845 35.833 61.0286 34.399 60.7494L21.5826 73.4867C20.5625 74.5004 19.232 75 17.9015 75C16.571 75 15.2404 74.5004 14.2204 73.4867C13.2003 72.4876 12.6977 71.1507 12.6977 69.8283C12.6977 68.5061 13.2003 67.1837 14.2204 66.17L27.0368 53.4327C26.7412 51.9929 26.8003 50.509 27.1994 49.0986C27.6134 47.5853 28.4265 46.1603 29.6091 44.9848C30.8361 43.7654 32.3145 42.9574 33.8963 42.546L33.8965 42.5608Z" fill="#43A4AA"/>
<path d="M27.5632 59.1315C27.8743 58.8225 28.3778 58.8225 28.6741 59.1315C28.9851 59.4404 28.9851 59.9406 28.6741 60.2348L18.4994 70.3407C18.1884 70.6496 17.6848 70.6496 17.3886 70.3407C17.0776 70.0318 17.0776 69.5316 17.3886 69.2374L27.5632 59.1315Z" fill="#43A4AA"/>
<path d="M13.3728 51.2522C14.9088 51.2522 16.2823 51.8683 17.2866 52.8658C18.2908 53.8633 18.9111 55.2422 18.9111 56.7531C18.9111 58.2787 18.2908 59.6429 17.2866 60.6404C16.2823 61.6379 14.894 62.254 13.3728 62.254C11.8369 62.254 10.4634 61.6379 9.45911 60.6404C8.45484 59.6429 7.83453 58.264 7.83453 56.7531C7.83453 55.2275 8.45483 53.8633 9.45911 52.8658C10.4634 51.8683 11.8517 51.2522 13.3728 51.2522ZM16.179 53.966C15.4553 53.2473 14.4658 52.8072 13.3728 52.8072C12.2799 52.8072 11.2905 53.2472 10.5667 53.966C9.84296 54.6848 9.39997 55.6677 9.39997 56.7532C9.39997 57.8387 9.84303 58.8215 10.5667 59.5404C11.2904 60.2591 12.2799 60.6992 13.3728 60.6992C14.4657 60.6992 15.4552 60.2592 16.179 59.5404C16.9026 58.8216 17.3457 57.8387 17.3457 56.7532C17.3457 55.6677 16.9026 54.6849 16.179 53.966Z" fill="#43A4AA"/>
<path d="M13.5816 68.48C14.0102 68.48 14.3649 68.8322 14.3649 69.2579C14.3649 69.6835 14.0102 70.0358 13.5816 70.0358H11.956C11.5421 70.0358 11.2022 69.7129 11.1727 69.3166L10.7441 66.6307C10.3007 66.5133 9.85738 66.3665 9.44357 66.1904C9.01499 66.0142 8.60118 65.8088 8.21694 65.5886L5.941 67.2178C5.61587 67.4526 5.18729 67.4086 4.92127 67.1444L2.91142 65.1484C2.63062 64.8695 2.60106 64.4145 2.85231 64.1063L4.47795 61.89C4.24149 61.4938 4.04937 61.0828 3.87202 60.6718C3.69467 60.2609 3.54689 59.8206 3.42867 59.3803L0.665036 58.94C0.280793 58.8813 0 58.5437 0 58.1621V55.3441C0 54.9332 0.325132 54.5956 0.724147 54.5662L3.42869 54.1406C3.54692 53.7003 3.69471 53.26 3.87204 52.849C4.04938 52.4234 4.25628 52.0124 4.47797 51.6308L2.83753 49.3706C2.60107 49.0477 2.64541 48.622 2.91143 48.3579L4.92128 46.3618C5.20207 46.083 5.66021 46.0536 5.97055 46.3031L8.20218 47.9176C8.60119 47.6828 9.015 47.492 9.4288 47.3158C9.84261 47.1397 10.286 46.9929 10.7293 46.8755L11.1727 44.1309C11.2318 43.7493 11.5717 43.4705 11.956 43.4705H14.7935C15.2073 43.4705 15.5472 43.7933 15.5767 44.1896L16.0053 46.8755C16.4487 46.993 16.892 47.1397 17.3058 47.3158C17.7344 47.492 18.1482 47.6974 18.5325 47.9176L20.8084 46.2885C21.1335 46.0536 21.5621 46.0977 21.8281 46.3618L23.838 48.3579C24.1188 48.6367 24.1484 49.0917 23.8971 49.3999L22.2715 51.6162C22.5079 52.0125 22.7 52.4234 22.8774 52.8344C23.0547 53.2453 23.2025 53.6856 23.3207 54.1259L26.0844 54.5662C26.513 54.6396 26.8085 55.0359 26.7346 55.4615C26.6607 55.8872 26.2617 56.1807 25.8331 56.1073L22.5818 55.5936C22.2567 55.5496 21.9759 55.3148 21.902 54.9772C21.7838 54.4488 21.636 53.9351 21.4291 53.4361C21.2222 52.9371 20.971 52.4528 20.6606 52.0125C20.4833 51.7483 20.4833 51.396 20.6754 51.1318L22.2271 48.9889L21.1779 47.9469L19.0498 49.4733C18.7986 49.6787 18.4291 49.6934 18.1336 49.5173C17.6754 49.2238 17.2025 48.9596 16.7 48.7541C16.1976 48.5486 15.6803 48.3872 15.1483 48.2844C14.8379 48.2257 14.5867 47.9762 14.5276 47.6387L14.1138 45.0408H12.6211L12.2073 47.6091C12.163 47.932 11.9265 48.2109 11.5866 48.2843C11.0546 48.4017 10.5373 48.5485 10.0349 48.7539C9.53239 48.9594 9.0447 49.2089 8.60135 49.5171C8.33532 49.6932 7.98065 49.6932 7.71462 49.5024L5.55686 47.9614L4.50759 49.0034L6.04455 51.1168C6.25145 51.3663 6.26624 51.7332 6.08889 52.0268C5.79332 52.4818 5.5273 52.9514 5.32041 53.4504C5.11351 53.9495 4.95094 54.4631 4.84749 54.9915C4.78837 55.2997 4.53713 55.5492 4.19722 55.6079L1.58132 56.0189V57.5013L4.1675 57.9122C4.49263 57.9563 4.77342 58.1911 4.84731 58.5287C4.96554 59.057 5.11333 59.5707 5.32022 60.0697C5.52712 60.5688 5.77837 61.0531 6.08871 61.4934C6.26605 61.7576 6.26605 62.1098 6.07393 62.374L4.52217 64.5169L5.57145 65.559L7.69948 64.0326C7.95071 63.8271 8.32018 63.8124 8.61575 63.9885C9.07389 64.2821 9.54681 64.5463 10.0493 64.7517C10.5518 64.9572 11.069 65.1187 11.601 65.2214C11.9114 65.2801 12.1626 65.5296 12.2217 65.8672L12.6355 68.4651H13.5961L13.5816 68.48Z" fill="#43A4AA"/>
</svg>
