<svg width="75" height="75" viewBox="0 0 75 75" fill="none" xmlns="http://www.w3.org/2000/svg">
<path d="M64.3757 71.8081L64.3757 71.808L71.7426 64.4472C73.0894 63.1016 73.0894 61.0721 71.7427 59.7264L51.4066 39.4072C52.4678 39.6512 53.5347 39.8074 54.6054 39.817L73.138 58.3342L73.138 58.3343L73.1432 58.3392C75.2858 60.3614 75.2858 63.8128 73.1423 65.8349L73.0529 65.9193L73.0533 65.9239L65.7703 73.201C64.8192 74.1512 63.3852 74.75 61.9508 74.75C60.5276 74.75 59.2131 74.1587 58.1263 73.1959L36.207 51.1705L37.6019 49.7767L59.6515 71.808C60.2685 72.4245 61.1481 72.7232 62.0133 72.7232C62.8785 72.7232 63.7582 72.4245 64.3757 71.8081ZM6.73108 14.8825C6.60716 14.8206 6.51585 14.7726 6.4518 14.7192C6.39333 14.6703 6.38574 14.6407 6.38574 14.6143V14.5302L6.33491 14.4632L0.467023 6.72921C0.466891 6.72903 0.466759 6.72886 0.466627 6.72868C0.309759 6.51925 0.239432 6.2954 0.251287 6.08161C0.263063 5.86924 0.357074 5.64485 0.568259 5.43384L5.43807 0.568079L5.45061 0.555543L5.46126 0.54136C5.72871 0.18525 6.31069 0.149066 6.73443 0.466431C6.7346 0.466553 6.73476 0.466675 6.73492 0.466798L14.4302 6.29567C14.4904 6.40874 14.5501 6.49808 14.6038 6.57858L14.6058 6.58151C14.6658 6.67132 14.7183 6.75032 14.7706 6.85308L16.139 10.7057L16.1577 10.7586L16.1972 10.7983L33.8778 28.5876L32.4823 29.982L14.4297 12.0652L14.4297 12.0652C14.3922 12.0279 14.3442 11.9594 14.3052 11.8814C14.2864 11.844 14.2723 11.8093 14.2633 11.7811C14.2542 11.7524 14.2537 11.7406 14.2536 11.743V11.6995L14.2383 11.6578L12.8648 7.9147L12.8398 7.84672L12.7824 7.8026L6.2891 2.81252L6.11521 2.67888L5.96006 2.83389L2.58844 6.20272L2.43304 6.35799L2.56703 6.53207L7.56126 13.02L7.60541 13.0773L7.67337 13.1022L11.4196 14.4747L11.4612 14.4899H11.5056C11.6447 14.4899 11.7058 14.5445 11.828 14.6665L29.8811 32.7056L28.4867 34.0988L10.6824 16.3092L10.6424 16.2693L10.5892 16.2505L6.73108 14.8825ZM49.4179 35.712C48.5971 35.4392 47.4856 35.5675 46.7803 36.406L10.829 72.2028L10.8286 72.2031C9.7522 73.2786 8.31682 73.8766 6.7601 73.8766H6.63554C5.08671 73.8766 3.53021 73.1611 2.45049 71.9628C0.420902 69.6954 0.533273 66.1036 2.81597 63.8236L2.816 63.8236L38.5279 28.1413C39.2241 27.4457 39.4928 26.3435 39.0847 25.257C36.7442 18.856 38.2249 11.4734 42.8999 6.67952L42.902 6.67734C47.7043 1.63273 55.2164 -0.211752 61.8632 2.24795L61.8632 2.24808L61.8712 2.25073C62.0147 2.29843 62.1658 2.39774 62.2792 2.52365C62.3942 2.65138 62.4491 2.78169 62.4491 2.88725V2.92776L62.4619 2.9662C62.5552 3.24679 62.4554 3.62275 62.1862 3.80171L62.1654 3.81548L62.1478 3.83307L52.4082 13.5646C50.8181 15.1534 50.8053 17.6858 52.412 19.1621L55.6545 22.402C57.1257 23.8719 59.781 23.8719 61.2523 22.402L61.0756 22.2251L61.2523 22.402L70.992 12.6704C71.0768 12.5856 71.2211 12.5079 71.4038 12.4518C71.5683 12.4012 71.7451 12.374 71.8985 12.3699C72.2241 12.4866 72.4908 12.6921 72.5762 12.9473L72.578 12.9522C74.917 19.4707 73.195 26.7312 68.3901 31.6565C63.4657 36.5757 55.9531 38.1759 49.4272 35.7153L49.4273 35.7151L49.4179 35.712ZM45.3953 34.879L45.3956 34.8787C46.6938 33.5816 48.5881 33.2192 50.3806 33.8151C56.2144 35.9673 62.8079 34.5732 67.2473 30.1383L67.0706 29.9615L67.2473 30.1383C71.0531 26.3357 72.7021 20.7595 71.56 15.5605L71.4621 15.1146L71.1391 15.4373L62.8977 23.6719C61.8159 24.7528 60.2542 25.4698 58.7036 25.4698C57.1417 25.4698 55.5899 24.8695 54.5185 23.6813L54.5188 23.6811L54.5096 23.6719L51.2632 20.4283C48.9914 18.1583 48.9843 14.3232 51.2655 11.921L59.5047 3.68874L59.827 3.36671L59.3822 3.26785C58.2422 3.01443 57.1005 2.88767 56.0816 2.88767C51.7682 2.88767 47.5825 4.66216 44.5386 7.82991C40.3488 12.1434 39.0843 18.6074 41.2363 24.43C41.8326 26.2206 41.4701 28.1131 40.1719 29.4104L4.33515 65.2152L4.51185 65.392L4.33514 65.2152C2.87676 66.6723 2.73351 69.0621 3.94387 70.5405L3.94536 70.5423C4.62194 71.3531 5.56875 71.7548 6.63443 71.7548C7.70113 71.7548 8.62972 71.3537 9.41697 70.6987L9.42556 70.6916L9.43347 70.6837L45.3953 34.879Z" fill="#43A4AA" stroke="#F7F7FF" stroke-width="0.5"/>
</svg>
